<svg xmlns="http://www.w3.org/2000/svg" width="1280" height="800" viewBox="0 0 1280 800" role="img">
  <defs>
    <linearGradient id="pageBg" x1="0" y1="0" x2="1" y2="1">
      <stop offset="0%" stop-color="#0F172A"/>
      <stop offset="48%" stop-color="#123C43"/>
      <stop offset="100%" stop-color="#F4B860"/>
    </linearGradient>
    <linearGradient id="cardBg" x1="0" y1="0" x2="1" y2="1">
      <stop offset="0%" stop-color="#FFFFFF"/>
      <stop offset="100%" stop-color="#F8FAFC"/>
    </linearGradient>
    <filter id="softShadow" x="-20%" y="-20%" width="140%" height="140%">
      <feDropShadow dx="0" dy="18" stdDeviation="24" flood-color="#0F172A" flood-opacity="0.22"/>
    </filter>
  </defs>
  <rect width="1280" height="800" fill="url(#pageBg)"/>
  <path d="M0 624 C230.39999999999998 528 435.20000000000005 736 665.6 608 C960 448.00000000000006 1126.4 624 1280 528 L1280 800 L0 800 Z" fill="#0B1220" opacity="0.26"/>
  <g filter="url(#softShadow)">
    <rect x="96" y="82" width="1088" height="636" rx="20" fill="#FFFFFF"/>
    <rect x="96" y="82" width="1088" height="52" rx="20" fill="#F2F4F7"/>
    <circle cx="124" cy="108" r="7" fill="#F97066"/>
    <circle cx="146" cy="108" r="7" fill="#FDB022"/>
    <circle cx="168" cy="108" r="7" fill="#32D583"/>
    <rect x="198" y="95" width="956" height="26" rx="13" fill="#FFFFFF"/>
    <text x="218" y="114" text-anchor="start" font-family="Hiragino Sans GB" font-size="13" font-weight="600" fill="#667085">bookmarks.html</text>
    <rect x="136" y="154" width="1008" height="520" rx="20" fill="#FFFFFF"/><text x="176" y="216" text-anchor="start" font-family="Hiragino Sans GB" font-size="38" font-weight="850" fill="#101828">MarkHarbor 导出预览</text><text x="176" y="262" text-anchor="start" font-family="Hiragino Sans GB" font-size="18" font-weight="600" fill="#667085">可离线浏览的 X 书签 HTML 视图。</text>
<text x="176" y="292" text-anchor="start" font-family="Hiragino Sans GB" font-size="18" font-weight="600" fill="#667085">不打开 Obsidian 也能快速检查导出结果。</text><rect x="176" y="340" width="440" height="220" rx="18" fill="#F8FAFC" stroke="#EAECF0"/><text x="206" y="386" text-anchor="start" font-family="Hiragino Sans GB" font-size="24" font-weight="850" fill="#101828">设计系统周刊</text><text x="206" y="430" text-anchor="start" font-family="Hiragino Sans GB" font-size="18" font-weight="600" fill="#344054">一份关于 AI 产品工作流</text>
<text x="206" y="462" text-anchor="start" font-family="Hiragino Sans GB" font-size="18" font-weight="600" fill="#344054">可审计性和可迁移性的实践指南。</text><rect x="668" y="340" width="360" height="220" rx="18" fill="#123C43"/><text x="848" y="456" text-anchor="middle" font-family="Hiragino Sans GB" font-size="24" font-weight="850" fill="#FFFFFF">图片附件</text>
  </g>
</svg>